<svg width="12" height="12" viewBox="0 0 12 12" fill="none" xmlns="http://www.w3.org/2000/svg">
<path d="M10.7799 5.37L10.0999 4.58C9.96994 4.43 9.86494 4.15 9.86494 3.95V3.1C9.86494 2.57 9.42994 2.135 8.89994 2.135H8.04994C7.85494 2.135 7.56994 2.03 7.41994 1.9L6.62994 1.22C6.28494 0.924999 5.71994 0.924999 5.36994 1.22L4.58494 1.905C4.43494 2.03 4.14994 2.135 3.95494 2.135H3.08994C2.55994 2.135 2.12494 2.57 2.12494 3.1V3.955C2.12494 4.15 2.01994 4.43 1.89494 4.58L1.21994 5.375C0.929941 5.72 0.929941 6.28 1.21994 6.625L1.89494 7.42C2.01994 7.57 2.12494 7.85 2.12494 8.045V8.9C2.12494 9.43 2.55994 9.865 3.08994 9.865H3.95494C4.14994 9.865 4.43494 9.97 4.58494 10.1L5.37494 10.78C5.71994 11.075 6.28494 11.075 6.63494 10.78L7.42494 10.1C7.57494 9.97 7.85494 9.865 8.05494 9.865H8.90494C9.43494 9.865 9.86994 9.43 9.86994 8.9V8.05C9.86994 7.855 9.97494 7.57 10.1049 7.42L10.7849 6.63C11.0749 6.285 11.0749 5.715 10.7799 5.37ZM8.07994 5.055L5.66494 7.47C5.59494 7.54 5.49994 7.58 5.39994 7.58C5.29994 7.58 5.20494 7.54 5.13494 7.47L3.92494 6.26C3.77994 6.115 3.77994 5.875 3.92494 5.73C4.06994 5.585 4.30994 5.585 4.45494 5.73L5.39994 6.675L7.54994 4.525C7.69494 4.38 7.93494 4.38 8.07994 4.525C8.22494 4.67 8.22494 4.91 8.07994 5.055Z" fill="#2D68FF"/>
</svg>
