<svg width="24" height="24" viewBox="0 0 24 24" fill="none" xmlns="http://www.w3.org/2000/svg">
<path d="M18.7998 9.91C17.6698 9.91 16.6598 10.46 16.0298 11.3C15.3998 10.46 14.3898 9.91 13.2598 9.91C11.3498 9.91 9.7998 11.47 9.7998 13.39C9.7998 14.13 9.9198 14.82 10.1198 15.45C11.0998 18.56 14.1398 20.43 15.6398 20.94C15.8498 21.01 16.1998 21.01 16.4098 20.94C17.9098 20.43 20.9498 18.57 21.9298 15.45C22.1398 14.81 22.2498 14.13 22.2498 13.39C22.2598 11.47 20.7098 9.91 18.7998 9.91Z" fill="#122F77"/>
<path d="M20.75 8.34C20.75 8.57 20.52 8.72 20.3 8.66C18.95 8.31 17.47 8.6 16.35 9.4C16.13 9.56 15.83 9.56 15.62 9.4C14.83 8.82 13.87 8.5 12.86 8.5C10.28 8.5 8.18 10.61 8.18 13.21C8.18 16.03 9.53 18.14 10.89 19.55C10.96 19.62 10.9 19.74 10.81 19.7C8.08 18.77 2 14.91 2 8.34C2 5.44 4.33 3.1 7.21 3.1C8.92 3.1 10.43 3.92 11.38 5.19C12.34 3.92 13.85 3.1 15.55 3.1C18.42 3.1 20.75 5.44 20.75 8.34Z" fill="#122F77"/>
</svg>
